<svg width="32" height="32" viewBox="0 0 32 32" fill="none" xmlns="http://www.w3.org/2000/svg">
<g clip-path="url(#clip0_66_18)">
<path d="M16 19.9901C13.7909 19.9901 12 21.7809 12 23.9901V31.9901H20V23.9901C20 21.7809 18.2091 19.9901 16 19.9901Z" fill="black"/>
<path d="M22.6667 23.9901V31.9901H28C30.2091 31.9901 32 30.1992 32 27.9901V15.8287C32.0003 15.1361 31.7311 14.4704 31.2493 13.9727L19.9187 1.72337C17.9194 -0.439758 14.5452 -0.572571 12.3821 1.42668C12.2793 1.52168 12.1803 1.62062 12.0854 1.72337L0.774688 13.9687C0.278313 14.4685 -0.000187405 15.1444 9.46143e-08 15.8487V27.9901C9.46143e-08 30.1992 1.79087 31.9901 4 31.9901H9.33331V23.9901C9.35825 20.3543 12.2937 17.3853 15.8379 17.2998C19.5006 17.2114 22.6387 20.231 22.6667 23.9901Z" fill="black"/>
<path d="M16 19.9901C13.7909 19.9901 12 21.7809 12 23.9901V31.9901H20V23.9901C20 21.7809 18.2091 19.9901 16 19.9901Z" fill="black"/>
</g>
<defs>
<clipPath id="clip0_66_18">
<rect width="32" height="32" fill="white"/>
</clipPath>
</defs>
</svg>
