<svg width="512" height="512" viewBox="0 0 512 512" fill="none" xmlns="http://www.w3.org/2000/svg">
<g clip-path="url(#clip0_67_4)">
<path d="M60.7787 502.4C72.4276 507.378 85.3066 508.73 97.7355 506.28C110.164 503.829 121.566 497.689 130.453 488.661L256 363.797L381.547 488.661C387.4 494.601 394.374 499.32 402.064 502.546C409.754 505.772 418.007 507.441 426.347 507.456C434.918 507.431 443.401 505.713 451.307 502.4C463.051 497.647 473.089 489.464 480.111 478.918C487.132 468.372 490.811 455.954 490.667 443.285V106.667C490.633 78.3873 479.384 51.2759 459.387 31.2794C439.391 11.2828 412.279 0.0338743 384 0L128 0C99.7206 0.0338743 72.6092 11.2828 52.6127 31.2794C32.6161 51.2759 21.3672 78.3873 21.3333 106.667V443.285C21.1957 455.964 24.887 468.389 31.9246 478.936C38.9621 489.483 49.0185 497.661 60.7787 502.4Z" fill="#FFF700"/>
</g>
<defs>
<clipPath id="clip0_67_4">
<rect width="512" height="512" fill="white"/>
</clipPath>
</defs>
</svg>
